<svg width="122" height="24" viewBox="0 0 122 24" fill="none" xmlns="http://www.w3.org/2000/svg">
<path d="M13.9297 9.08203L12.8633 15.8555C12.3555 16.4727 11.7227 16.957 10.9648 17.3086C10.2148 17.6523 9.42188 17.8945 8.58594 18.0352C7.75 18.1758 6.95312 18.2383 6.19531 18.2227C5.03125 18.207 4.03906 17.9727 3.21875 17.5195C2.40625 17.0586 1.75781 16.4414 1.27344 15.668C0.796875 14.8945 0.476562 14.0234 0.3125 13.0547C0.148438 12.0781 0.132812 11.0625 0.265625 10.0078L0.417969 8.94141C0.566406 7.84766 0.851562 6.80469 1.27344 5.8125C1.69531 4.8125 2.24609 3.92578 2.92578 3.15234C3.60547 2.37109 4.41797 1.76172 5.36328 1.32422C6.30859 0.878906 7.38281 0.667969 8.58594 0.691406C9.78906 0.714844 10.8125 0.949219 11.6562 1.39453C12.5 1.83984 13.1562 2.48047 13.625 3.31641C14.1016 4.14453 14.3789 5.15234 14.457 6.33984L11.1523 6.32812C11.1133 5.76562 11 5.26953 10.8125 4.83984C10.625 4.41016 10.3438 4.07422 9.96875 3.83203C9.59375 3.58984 9.10156 3.45703 8.49219 3.43359C7.74219 3.40234 7.09766 3.55078 6.55859 3.87891C6.01953 4.20703 5.56641 4.64844 5.19922 5.20312C4.83984 5.75 4.55469 6.35156 4.34375 7.00781C4.13281 7.65625 3.98438 8.29297 3.89844 8.91797L3.74609 10.0195C3.67578 10.5898 3.64062 11.1914 3.64062 11.8242C3.64844 12.4492 3.73828 13.0391 3.91016 13.5938C4.08984 14.1406 4.38672 14.5898 4.80078 14.9414C5.21484 15.2852 5.79297 15.4648 6.53516 15.4805C6.89453 15.4883 7.24609 15.4648 7.58984 15.4102C7.93359 15.3555 8.26562 15.2656 8.58594 15.1406C8.90625 15.0078 9.20703 14.8359 9.48828 14.625L10.0742 11.5898H6.95703L7.39062 9.08203H13.9297ZM20.8672 18.2344C20 18.2188 19.2188 18.0547 18.5234 17.7422C17.8281 17.4219 17.2461 16.9844 16.7773 16.4297C16.3164 15.875 15.9766 15.2305 15.7578 14.4961C15.5391 13.7617 15.4609 12.9727 15.5234 12.1289L15.5703 11.6484C15.6641 10.7656 15.8789 9.92578 16.2148 9.12891C16.5508 8.33203 17 7.62891 17.5625 7.01953C18.125 6.40234 18.7891 5.92188 19.5547 5.57812C20.3281 5.22656 21.1875 5.0625 22.1328 5.08594C23.0156 5.10156 23.7695 5.28125 24.3945 5.625C25.0195 5.96875 25.5234 6.42969 25.9062 7.00781C26.2891 7.58594 26.5508 8.24609 26.6914 8.98828C26.832 9.72266 26.8594 10.4922 26.7734 11.2969L26.5859 12.7031H16.7891L17.1523 10.4531L23.6211 10.4648L23.6797 10.1719C23.7422 9.74219 23.7227 9.34375 23.6211 8.97656C23.5195 8.60156 23.3281 8.30078 23.0469 8.07422C22.7656 7.84766 22.3906 7.72656 21.9219 7.71094C21.3828 7.69531 20.9297 7.80859 20.5625 8.05078C20.1953 8.29297 19.8945 8.61328 19.6602 9.01172C19.4258 9.41016 19.2461 9.84375 19.1211 10.3125C18.9961 10.7734 18.9062 11.2188 18.8516 11.6484L18.8047 12.1172C18.7656 12.5312 18.7773 12.9453 18.8398 13.3594C18.9023 13.7656 19.0234 14.1328 19.2031 14.4609C19.3906 14.7891 19.6445 15.0547 19.9648 15.2578C20.293 15.4609 20.7031 15.5703 21.1953 15.5859C21.8203 15.6016 22.3945 15.4805 22.918 15.2227C23.4492 14.957 23.9258 14.6055 24.3477 14.168L25.8242 15.9492C25.4727 16.4805 25.0234 16.918 24.4766 17.2617C23.9375 17.5977 23.3555 17.8438 22.7305 18C22.1055 18.1641 21.4844 18.2422 20.8672 18.2344ZM28.0742 11.8594L28.1094 11.6133C28.2031 10.7148 28.418 9.87109 28.7539 9.08203C29.0977 8.28516 29.5508 7.58594 30.1133 6.98438C30.6836 6.375 31.3516 5.90234 32.1172 5.56641C32.8906 5.22266 33.7578 5.0625 34.7188 5.08594C35.6328 5.10156 36.4219 5.28516 37.0859 5.63672C37.75 5.98828 38.293 6.46094 38.7148 7.05469C39.1445 7.64844 39.4453 8.32812 39.6172 9.09375C39.7969 9.85938 39.8477 10.668 39.7695 11.5195L39.7461 11.7773C39.6445 12.668 39.418 13.5078 39.0664 14.2969C38.7227 15.0781 38.2656 15.7695 37.6953 16.3711C37.1328 16.9648 36.4648 17.4297 35.6914 17.7656C34.918 18.1016 34.0586 18.2578 33.1133 18.2344C32.2148 18.2188 31.4297 18.0391 30.7578 17.6953C30.0859 17.3438 29.5391 16.875 29.1172 16.2891C28.6953 15.6953 28.3984 15.0195 28.2266 14.2617C28.0547 13.5039 28.0039 12.7031 28.0742 11.8594ZM31.4023 11.6133L31.3789 11.8711C31.3398 12.2461 31.3281 12.6484 31.3438 13.0781C31.3594 13.5 31.4258 13.9023 31.543 14.2852C31.668 14.668 31.8711 14.9805 32.1523 15.2227C32.4336 15.4648 32.8203 15.5938 33.3125 15.6094C33.8359 15.625 34.2852 15.5195 34.6602 15.293C35.0352 15.0664 35.3438 14.7617 35.5859 14.3789C35.8281 13.9883 36.0195 13.5664 36.1602 13.1133C36.3008 12.6523 36.3945 12.2031 36.4414 11.7656L36.4648 11.5195C36.4961 11.1445 36.5039 10.7422 36.4883 10.3125C36.4805 9.875 36.4141 9.46484 36.2891 9.08203C36.1641 8.69141 35.9609 8.37109 35.6797 8.12109C35.3984 7.87109 35.0117 7.73828 34.5195 7.72266C33.9961 7.69922 33.5469 7.80859 33.1719 8.05078C32.7969 8.28516 32.4883 8.59766 32.2461 8.98828C32.0039 9.37891 31.8125 9.80469 31.6719 10.2656C31.5391 10.7266 31.4492 11.1758 31.4023 11.6133ZM47.457 0.9375L44.5039 18H41.0703L44.0352 0.9375H47.457ZM52.3906 8.21484L50.6914 18H47.3867L49.5898 5.32031H52.6836L52.3906 8.21484ZM51.418 11.2148L50.5977 11.2383C50.6836 10.4805 50.8555 9.73047 51.1133 8.98828C51.3711 8.24609 51.7227 7.57812 52.168 6.98438C52.6211 6.38281 53.1719 5.91016 53.8203 5.56641C54.4766 5.22266 55.2383 5.05859 56.1055 5.07422C56.8086 5.09766 57.3867 5.24609 57.8398 5.51953C58.3008 5.78516 58.6523 6.14453 58.8945 6.59766C59.1445 7.05078 59.3047 7.5625 59.375 8.13281C59.4531 8.70312 59.4609 9.29688 59.3984 9.91406L58.0391 18H54.7227L56.0938 9.87891C56.1406 9.46484 56.1289 9.09766 56.0586 8.77734C55.9883 8.45703 55.832 8.20312 55.5898 8.01562C55.3555 7.82812 55.0117 7.73047 54.5586 7.72266C54.0586 7.70703 53.625 7.80078 53.2578 8.00391C52.8984 8.20703 52.5938 8.48047 52.3438 8.82422C52.0938 9.16797 51.8945 9.54688 51.7461 9.96094C51.5977 10.375 51.4883 10.793 51.418 11.2148ZM68.7734 5.32031L68.3516 7.71094H61.168L61.5898 5.32031H68.7734ZM63.9102 2.19141H67.2031L65.1406 14.2031C65.1094 14.4766 65.1094 14.7109 65.1406 14.9062C65.1797 15.0938 65.2695 15.2383 65.4102 15.3398C65.5508 15.4414 65.7695 15.5 66.0664 15.5156C66.2305 15.5234 66.3945 15.5195 66.5586 15.5039C66.7227 15.4805 66.8906 15.457 67.0625 15.4336L66.8281 17.9531C66.5156 18.0469 66.1992 18.1133 65.8789 18.1523C65.5664 18.1992 65.2461 18.2227 64.918 18.2227C64.168 18.207 63.5508 18.043 63.0664 17.7305C62.5898 17.418 62.2461 16.9883 62.0352 16.4414C61.832 15.8867 61.7656 15.2461 61.8359 14.5195L63.9102 2.19141ZM74.3516 18.2344C73.4844 18.2188 72.7031 18.0547 72.0078 17.7422C71.3125 17.4219 70.7305 16.9844 70.2617 16.4297C69.8008 15.875 69.4609 15.2305 69.2422 14.4961C69.0234 13.7617 68.9453 12.9727 69.0078 12.1289L69.0547 11.6484C69.1484 10.7656 69.3633 9.92578 69.6992 9.12891C70.0352 8.33203 70.4844 7.62891 71.0469 7.01953C71.6094 6.40234 72.2734 5.92188 73.0391 5.57812C73.8125 5.22656 74.6719 5.0625 75.6172 5.08594C76.5 5.10156 77.2539 5.28125 77.8789 5.625C78.5039 5.96875 79.0078 6.42969 79.3906 7.00781C79.7734 7.58594 80.0352 8.24609 80.1758 8.98828C80.3164 9.72266 80.3438 10.4922 80.2578 11.2969L80.0703 12.7031H70.2734L70.6367 10.4531L77.1055 10.4648L77.1641 10.1719C77.2266 9.74219 77.207 9.34375 77.1055 8.97656C77.0039 8.60156 76.8125 8.30078 76.5312 8.07422C76.25 7.84766 75.875 7.72656 75.4062 7.71094C74.8672 7.69531 74.4141 7.80859 74.0469 8.05078C73.6797 8.29297 73.3789 8.61328 73.1445 9.01172C72.9102 9.41016 72.7305 9.84375 72.6055 10.3125C72.4805 10.7734 72.3906 11.2188 72.3359 11.6484L72.2891 12.1172C72.25 12.5312 72.2617 12.9453 72.3242 13.3594C72.3867 13.7656 72.5078 14.1328 72.6875 14.4609C72.875 14.7891 73.1289 15.0547 73.4492 15.2578C73.7773 15.4609 74.1875 15.5703 74.6797 15.5859C75.3047 15.6016 75.8789 15.4805 76.4023 15.2227C76.9336 14.957 77.4102 14.6055 77.832 14.168L79.3086 15.9492C78.957 16.4805 78.5078 16.918 77.9609 17.2617C77.4219 17.5977 76.8398 17.8438 76.2148 18C75.5898 18.1641 74.9688 18.2422 74.3516 18.2344ZM90.9453 5.32031H93.9688L91.8711 17.5664C91.7148 18.7305 91.3281 19.7227 90.7109 20.543C90.0938 21.3633 89.3086 21.9844 88.3555 22.4062C87.4102 22.8281 86.3594 23.0273 85.2031 23.0039C84.6406 22.9883 84.0859 22.9023 83.5391 22.7461C82.9922 22.5898 82.4805 22.3594 82.0039 22.0547C81.5273 21.7578 81.1133 21.3867 80.7617 20.9414L82.3906 18.9961C82.7344 19.4492 83.1406 19.8008 83.6094 20.0508C84.0781 20.3086 84.5977 20.4453 85.168 20.4609C85.7773 20.4766 86.3164 20.3672 86.7852 20.1328C87.2539 19.8984 87.6406 19.5664 87.9453 19.1367C88.25 18.707 88.4531 18.1953 88.5547 17.6016L90.1719 8.08594L90.9453 5.32031ZM81.582 11.8945L81.6172 11.6484C81.7109 10.8516 81.8984 10.0625 82.1797 9.28125C82.4609 8.49219 82.8398 7.77734 83.3164 7.13672C83.793 6.49609 84.375 5.98828 85.0625 5.61328C85.75 5.23828 86.5508 5.0625 87.4648 5.08594C88.3086 5.10938 88.9922 5.32031 89.5156 5.71875C90.0391 6.10938 90.4375 6.62109 90.7109 7.25391C90.9844 7.87891 91.1641 8.55859 91.25 9.29297C91.3438 10.0273 91.375 10.7422 91.3438 11.4375L91.2852 11.9883C91.1602 12.6914 90.9531 13.4141 90.6641 14.1562C90.375 14.8984 90 15.5859 89.5391 16.2188C89.0781 16.8438 88.5234 17.3438 87.875 17.7188C87.2344 18.0938 86.5039 18.2695 85.6836 18.2461C84.832 18.2227 84.125 18.0156 83.5625 17.625C83.0078 17.2344 82.5703 16.7305 82.25 16.1133C81.9375 15.4883 81.7305 14.8086 81.6289 14.0742C81.5273 13.332 81.5117 12.6055 81.582 11.8945ZM84.9219 11.6367L84.8867 11.8945C84.8477 12.2461 84.832 12.6328 84.8398 13.0547C84.8555 13.4688 84.918 13.8672 85.0273 14.25C85.1445 14.6328 85.3359 14.9492 85.6016 15.1992C85.8672 15.4414 86.2344 15.5703 86.7031 15.5859C87.3203 15.6172 87.8477 15.4883 88.2852 15.1992C88.7305 14.9102 89.0859 14.5273 89.3516 14.0508C89.6172 13.5664 89.8008 13.0547 89.9023 12.5156L90.125 10.957C90.1562 10.582 90.1523 10.207 90.1133 9.83203C90.0742 9.45703 89.9805 9.11328 89.832 8.80078C89.6914 8.48828 89.4805 8.23438 89.1992 8.03906C88.9258 7.84375 88.5625 7.74219 88.1094 7.73438C87.5859 7.71094 87.1328 7.82031 86.75 8.0625C86.375 8.30469 86.0625 8.625 85.8125 9.02344C85.5625 9.41406 85.3633 9.83984 85.2148 10.3008C85.0664 10.7617 84.9688 11.207 84.9219 11.6367ZM99.2773 8.26172L97.5898 18H94.2969L96.5 5.32031H99.5938L99.2773 8.26172ZM103.414 5.21484L103.004 8.36719C102.816 8.33594 102.625 8.30859 102.43 8.28516C102.242 8.26172 102.051 8.24609 101.855 8.23828C101.402 8.23047 100.992 8.28906 100.625 8.41406C100.258 8.53906 99.9375 8.72266 99.6641 8.96484C99.3984 9.19922 99.1719 9.48828 98.9844 9.83203C98.8047 10.1758 98.668 10.5625 98.5742 10.9922L97.9297 10.7812C98.0078 10.1797 98.1367 9.54688 98.3164 8.88281C98.5039 8.21094 98.7617 7.58594 99.0898 7.00781C99.4258 6.42188 99.8516 5.94922 100.367 5.58984C100.891 5.22266 101.527 5.04297 102.277 5.05078C102.473 5.05078 102.66 5.06641 102.84 5.09766C103.027 5.12891 103.219 5.16797 103.414 5.21484ZM109.602 15.1406L110.492 9.45703C110.531 9.11328 110.516 8.79297 110.445 8.49609C110.375 8.19922 110.23 7.96484 110.012 7.79297C109.801 7.61328 109.5 7.51562 109.109 7.5C108.758 7.49219 108.441 7.55469 108.16 7.6875C107.887 7.8125 107.66 7.99609 107.48 8.23828C107.301 8.47266 107.176 8.75391 107.105 9.08203L103.801 9.10547C103.84 8.40234 104.035 7.79688 104.387 7.28906C104.746 6.77344 105.199 6.35156 105.746 6.02344C106.293 5.69531 106.887 5.45312 107.527 5.29688C108.176 5.14062 108.809 5.07031 109.426 5.08594C110.309 5.10156 111.094 5.28516 111.781 5.63672C112.477 5.98828 113.008 6.49219 113.375 7.14844C113.75 7.79688 113.891 8.58594 113.797 9.51562L112.918 14.9531C112.848 15.4062 112.793 15.8828 112.754 16.3828C112.715 16.875 112.785 17.3438 112.965 17.7891L112.941 18L109.707 18.0117C109.559 17.5508 109.484 17.0781 109.484 16.5938C109.492 16.1016 109.531 15.6172 109.602 15.1406ZM110.867 10.2773L110.551 12.1875L108.875 12.1758C108.539 12.1836 108.203 12.2305 107.867 12.3164C107.539 12.3945 107.234 12.5195 106.953 12.6914C106.672 12.8555 106.438 13.0703 106.25 13.3359C106.07 13.6016 105.957 13.9258 105.91 14.3086C105.871 14.582 105.898 14.8281 105.992 15.0469C106.086 15.2578 106.23 15.4258 106.426 15.5508C106.629 15.6758 106.871 15.7422 107.152 15.75C107.551 15.7578 107.941 15.6836 108.324 15.5273C108.707 15.3633 109.039 15.1328 109.32 14.8359C109.602 14.5391 109.797 14.1953 109.906 13.8047L110.609 15.2695C110.422 15.707 110.184 16.1094 109.895 16.4766C109.613 16.8438 109.289 17.1641 108.922 17.4375C108.555 17.7031 108.152 17.9062 107.715 18.0469C107.277 18.1953 106.809 18.2656 106.309 18.2578C105.613 18.2422 104.973 18.0781 104.387 17.7656C103.809 17.4453 103.348 17.0117 103.004 16.4648C102.668 15.9102 102.516 15.2656 102.547 14.5312C102.578 13.7031 102.785 13.0156 103.168 12.4688C103.551 11.9141 104.043 11.4766 104.645 11.1562C105.254 10.8359 105.914 10.6094 106.625 10.4766C107.344 10.3359 108.055 10.2656 108.758 10.2656L110.867 10.2773ZM121.496 0L118.379 18H115.074L118.191 0H121.496Z" fill="#03A055"/>
</svg>
